<?xml version="1.0" standalone="no"?><svg xmlns="http://www.w3.org/2000/svg" viewBox="0 0 1440 320"><path fill="#0077b6" fill-opacity="0.8" d="M0,32L40,74.7C80,117,160,203,240,224C320,245,400,203,480,202.7C560,203,640,245,720,272C800,299,880,309,960,298.7C1040,288,1120,256,1200,256C1280,256,1360,288,1400,304L1440,320L1440,320L1400,320C1360,320,1280,320,1200,320C1120,320,1040,320,960,320C880,320,800,320,720,320C640,320,560,320,480,320C400,320,320,320,240,320C160,320,80,320,40,320L0,320Z"></path></svg>